<svg width="91" height="104" viewBox="0 0 91 104" fill="none" xmlns="http://www.w3.org/2000/svg">
<path d="M90.4281 0.998413L82.2094 93.0032L45.2658 103.238L8.42391 93.0176L0.213867 0.998413H90.4281Z" fill="#264DE4"/>
<path d="M45.3208 95.4149L75.1731 87.1446L82.1965 8.52234H45.3208V95.4149Z" fill="#2965F1"/>
<path d="M45.3208 42.6509H19.0351L20.0473 53.9366H45.3208V42.6509Z" fill="#EBEBEB"/>
<path d="M45.3209 19.8083H45.2819H17.0013L18.0279 31.0942H45.3209V19.8083Z" fill="#EBEBEB"/>
<path d="M20.5521 59.5797L22.1344 77.3L45.2691 83.7177L45.321 83.7033V71.9614L45.2715 71.9745L32.6935 68.5807L31.8894 59.5797H20.5521Z" fill="#EBEBEB"/>
<path d="M59.189 53.9367L57.878 68.5734L45.2818 71.9708V83.7123L68.4349 77.3L71.2587 45.6816L71.5343 42.651L73.5731 19.8083H45.2819L45.2818 31.0942H61.196L60.1684 42.651H45.2818V53.9367H59.189Z" fill="white"/>
</svg>
