<svg width="103" height="103" viewBox="0 0 103 103" fill="none" xmlns="http://www.w3.org/2000/svg">
<path d="M102.746 0.236084H0.492865C0.476311 0.236084 0.462891 0.249494 0.462891 0.266037V102.446C0.462891 102.462 0.476311 102.475 0.492865 102.475H102.746C102.762 102.475 102.776 102.462 102.776 102.446V0.266037C102.776 0.249494 102.762 0.236084 102.746 0.236084Z" fill="#066DA5"/>
<path d="M59.6125 49.1592H68.0054V41.5711H59.6125V49.1592ZM49.6211 49.1592H58.0139V41.5711H49.6211V49.1592ZM39.8294 49.1592H48.2222V41.5711H39.8294V49.1592ZM30.0378 49.1592H38.2308V41.5711H30.0378V49.1592ZM20.0463 49.1592H28.4391V41.5711H20.0463V49.1592ZM30.0378 39.9736H38.2308V32.3856H30.0378V39.9736ZM39.8294 39.9736H48.2222V32.3856H39.8294V39.9736ZM49.6211 39.9736H58.0139V32.3856H49.6211V39.9736ZM49.6211 30.7881H58.0139V23.2H49.6211V30.7881ZM94.7825 45.7645C94.7825 45.7645 91.1856 42.3699 83.7919 43.568C82.9926 37.7771 76.7979 34.3824 76.7979 34.3824C76.7979 34.3824 71.0028 41.3714 75.1992 49.1592C74.0002 49.7583 72.002 50.557 69.0045 50.557H14.0514C13.0523 54.351 13.0523 79.5115 40.6287 79.5115C60.4118 79.5115 75.1992 70.3259 82.1933 53.5523C92.5844 54.351 94.7825 45.7645 94.7825 45.7645Z" fill="white"/>
</svg>
