<svg width="103" height="60" viewBox="0 0 103 60" fill="none" xmlns="http://www.w3.org/2000/svg">
<path d="M102.746 58.0132C99.0247 58.9589 96.7226 58.0547 94.6572 54.9556L79.9689 34.6483L77.8459 31.8367L60.6926 55.0227C58.7327 57.8119 56.6768 59.026 53.0191 58.0387L74.9844 28.5746L54.5346 1.96043C58.0516 1.2767 60.4816 1.62496 62.6397 4.77201L77.8747 25.3317L93.2216 4.88384C95.1879 2.09462 97.3013 1.03389 100.831 2.06267L92.9019 12.5678L82.1591 26.5458C80.8802 28.1433 81.056 29.236 82.2326 30.7792L102.746 58.0132ZM0.459172 28.0826L2.25604 19.2517C7.14786 1.77512 27.1948 -5.48707 41.0198 5.31197C49.0993 11.6636 51.1072 20.6479 50.7075 30.7121H5.16556C4.48134 48.8276 17.5294 59.7608 34.1648 54.1824C39.9998 52.2239 43.4369 47.6582 45.157 41.9456C46.0299 39.0829 47.4751 38.6356 50.1672 39.4535C48.7923 46.5975 45.691 52.5657 39.1366 56.3007C29.3433 61.8919 15.3649 60.0835 8.01113 52.3133C3.63087 47.8052 1.82121 42.0926 1.0091 35.9838C0.881212 34.9742 0.62543 34.0125 0.433594 33.0444C0.450646 31.3915 0.459172 29.7387 0.459172 28.0858V28.0826ZM5.24869 26.8685H46.404C46.1354 13.7691 37.9728 4.4653 26.8175 4.38542C14.5719 4.28957 5.77943 13.3729 5.24869 26.8685V26.8685Z" fill="black"/>
</svg>
