<svg width="69" height="104" viewBox="0 0 69 104" fill="none" xmlns="http://www.w3.org/2000/svg">
<path d="M17.1273 103.238C21.6498 103.238 25.9871 101.443 29.185 98.2469C32.3829 95.0513 34.1795 90.7172 34.1795 86.1979V69.158H17.1273C12.6048 69.158 8.26756 70.9533 5.06967 74.1489C1.87178 77.3445 0.0752182 81.6787 0.0752182 86.1979C0.0752182 90.7172 1.87178 95.0513 5.06967 98.2469C8.26756 101.443 12.6048 103.238 17.1273 103.238Z" fill="#0ACF83"/>
<path d="M0.0752182 52.1181C0.0752182 47.5988 1.87178 43.2646 5.06967 40.069C8.26756 36.8734 12.6048 35.0782 17.1273 35.0782H34.1795V69.158H17.1273C12.6048 69.158 8.26756 67.3627 5.06967 64.1671C1.87178 60.9715 0.0752182 56.6373 0.0752182 52.1181Z" fill="#A259FF"/>
<path d="M0.0751953 18.0383C0.0751939 13.5214 1.86992 9.18923 5.06493 5.99401C8.25995 2.79879 12.5938 1.00196 17.114 0.998435H34.1661V35.0782L17.1273 35.0782C12.6048 35.0782 8.26754 33.283 5.06964 30.0874C1.87175 26.8918 0.0751953 22.5576 0.0751953 18.0383Z" fill="#F24E1E"/>
<path d="M34.1797 0.998413H51.2318C55.7543 0.998413 60.0916 2.79368 63.2895 5.98928C66.4874 9.18488 68.284 13.519 68.284 18.0383C68.284 22.5576 66.4874 26.8917 63.2895 30.0873C60.0916 33.2829 55.7543 35.0782 51.2318 35.0782L34.1795 35.0782L34.1797 0.998413Z" fill="#FF7262"/>
<path d="M68.284 52.1181C68.284 56.6373 66.4874 60.9715 63.2895 64.1671C60.0916 67.3627 55.7543 69.158 51.2318 69.158C46.7093 69.158 42.3721 67.3627 39.1742 64.1671C35.9763 60.9715 34.1797 56.6373 34.1797 52.1181C34.1797 47.5988 35.9763 43.2646 39.1742 40.069C42.3721 36.8734 46.7093 35.0782 51.2318 35.0782C55.7543 35.0782 60.0916 36.8734 63.2895 40.069C66.4874 43.2646 68.284 47.5988 68.284 52.1181Z" fill="#1ABCFE"/>
</svg>
