<svg width="47" height="103" viewBox="0 0 47 103" fill="none" xmlns="http://www.w3.org/2000/svg">
<path d="M22.7698 0.51531L25.5002 5.64006C26.1141 6.58577 26.7791 7.42286 27.5625 8.20243C29.8485 10.4868 32.0195 12.8799 33.9698 15.4423C38.5963 21.5127 41.7168 28.2541 43.9453 35.5451C45.2818 39.9989 46.0075 44.5677 46.0619 49.1876C46.2857 62.9995 41.5473 74.8593 31.9939 84.7158C30.4336 86.275 28.7647 87.7191 26.9742 89.0035C26.0278 89.0035 25.5802 88.2782 25.1901 87.6105C24.4643 86.3868 24.0199 84.9906 23.7961 83.6008C23.4604 81.9298 23.2398 80.2588 23.3485 78.5335V77.754C23.2717 77.5878 22.4372 0.908293 22.7698 0.51531Z" fill="#599636"/>
<path d="M22.7697 0.346001C22.6578 0.122352 22.5459 0.291686 22.434 0.400316C22.4883 1.51856 22.0982 2.51539 21.4876 3.4675C20.8161 4.41321 19.9273 5.13847 19.0353 5.91805C14.0795 10.2057 10.1788 15.3848 7.05507 21.1773C2.89862 28.973 0.756446 37.3279 0.148964 46.1237C-0.129199 49.2963 1.15291 60.4915 2.15365 63.7216C4.88412 72.297 9.78874 79.4825 16.1417 85.7191C17.702 87.2207 19.371 88.6137 21.0975 89.9524C21.5995 89.9524 21.6538 89.5051 21.7689 89.1729C21.989 88.4618 22.1568 87.7357 22.2709 87.0003L23.3899 78.6486L22.7697 0.346001Z" fill="#6CAC48"/>
<path d="M25.4998 92.3966C25.6117 91.1186 26.2255 90.0579 26.8938 89.0003C26.2223 88.7223 25.7236 88.1696 25.3335 87.553C24.9978 86.9971 24.7196 86.3293 24.5022 85.7159C23.7221 83.3771 23.5558 80.9234 23.332 78.5336V77.0862C23.0538 77.3099 22.9963 79.2013 22.9963 79.4825C22.8336 82.0083 22.4982 84.5201 21.9923 87.0003C21.8261 88.0035 21.7142 89.0035 21.0971 89.8949C21.0971 90.0067 21.0971 90.1186 21.1515 90.2847C22.1554 93.2369 22.4304 96.2433 22.5998 99.3073V100.426C22.5998 101.761 22.5455 101.48 23.6549 101.927C24.1025 102.093 24.6013 102.151 25.0489 102.483C25.3847 102.483 25.439 102.205 25.439 101.982L25.2727 100.144V95.0197C25.2184 94.1251 25.3847 93.2369 25.4966 92.3998L25.4998 92.3966Z" fill="#C2BFBF"/>
</svg>
