<svg width="93" height="103" viewBox="0 0 93 103" fill="none" xmlns="http://www.w3.org/2000/svg">
<path d="M42.3326 1.32828C44.9005 -0.124773 48.1746 -0.131188 50.6784 1.32828L89.0177 22.9252C91.4155 24.2724 93.0205 26.9444 92.998 29.7061V73.0091C93.0141 75.8863 91.2518 78.616 88.7224 79.9375L50.5885 101.435C49.2842 102.155 47.8107 102.513 46.321 102.472C44.8314 102.431 43.38 101.992 42.1175 101.201L30.6741 94.5932C29.8941 94.1281 29.0178 93.7592 28.4657 93.0054C28.9536 92.351 29.8203 92.2676 30.5265 91.979C32.1186 91.4721 33.5759 90.6959 35.0396 89.8747C35.4088 89.6181 35.8614 89.7144 36.2145 89.9453L45.9726 95.5843C46.6692 95.9853 47.3754 95.456 47.9724 95.1192L85.4162 74.0034C85.8784 73.7789 86.1352 73.2913 86.0967 72.7845V29.8986C86.148 29.3212 85.8174 28.7952 85.2942 28.561L47.2566 7.15653C47.0374 7.00503 46.7773 6.9236 46.5108 6.92303C46.2443 6.92246 45.9838 7.00277 45.764 7.15333L7.78094 28.6027C7.26735 28.8369 6.91426 29.3565 6.97845 29.9339V72.8198C6.93351 73.3266 7.20315 73.8045 7.66859 74.0227L17.8184 79.7483C19.7251 80.7747 22.0651 81.3521 24.1644 80.5983C25.0831 80.2523 25.8739 79.634 26.431 78.8262C26.9881 78.0184 27.2847 77.0598 27.2812 76.0788L27.2909 33.4494C27.2459 32.8175 27.843 32.2947 28.4561 32.3588H33.3352C33.9771 32.3428 34.4811 33.0228 34.3944 33.6579L34.3848 76.5567C34.388 80.3673 32.8216 84.5116 29.2939 86.3816C24.9476 88.627 19.5742 88.1555 15.2793 85.9967L4.36558 79.9664C1.79764 78.6833 0.0739053 75.912 0.0899549 73.0379V29.735C0.100632 28.3276 0.487825 26.9486 1.2114 25.7411C1.93497 24.5336 2.96858 23.5414 4.20508 22.8675L42.3326 1.32828ZM53.3876 31.3452C58.9311 31.0245 64.8662 31.1335 69.8545 33.8632C73.716 35.9546 75.857 40.3426 75.9276 44.6344C75.8185 45.2118 75.215 45.5326 74.6629 45.4909C73.058 45.4876 71.4466 45.5133 69.8352 45.4812C69.1515 45.5069 68.7567 44.8782 68.67 44.2752C68.2078 42.2223 67.0875 40.1919 65.1551 39.2007C62.1892 37.7156 58.7481 37.7893 55.5125 37.8214C53.15 37.9497 50.611 38.1518 48.6112 39.5375C47.0704 40.5896 46.6082 42.7451 47.1571 44.4195C47.6707 45.648 49.0927 46.0426 50.2515 46.4082C56.9345 48.1532 64.0124 48.012 70.5703 50.2798C73.2827 51.2165 75.9373 53.0384 76.8682 55.8771C78.0815 59.6814 77.5519 64.2298 74.8459 67.2835C72.6503 69.7982 69.4532 71.1326 66.2594 71.9088C62.0126 72.8551 57.6086 72.8775 53.2977 72.4541C49.2435 71.9922 45.0257 70.9273 41.896 68.1688C39.2189 65.8464 37.9157 62.2282 38.0441 58.7383C38.0762 58.1481 38.6636 57.7376 39.2318 57.7857H44.0467C44.6951 57.7408 45.1701 58.2989 45.2022 58.9083C45.5008 60.8329 46.2358 62.9179 47.9435 64.0405C51.2369 66.164 55.3681 66.0164 59.1365 66.0774C62.2598 65.9395 65.765 65.8978 68.3169 63.832C69.6651 62.6548 70.0599 60.6886 69.6972 58.9949C69.3024 57.5643 67.7712 56.9004 66.4873 56.4288C59.8909 54.3439 52.7327 55.1009 46.2005 52.7401C43.5491 51.8035 40.9844 50.0329 39.9669 47.3096C38.5449 43.4604 39.1965 38.6907 42.1913 35.7397C45.0803 32.8047 49.3174 31.6724 53.3298 31.2682L53.3876 31.3452Z" fill="#8CC84B"/>
</svg>
