<svg width="104" height="103" viewBox="0 0 104 103" fill="none" xmlns="http://www.w3.org/2000/svg">
<path d="M92.4205 20.111C86.236 12.1083 77.8156 6.1181 68.224 2.8979C58.6325 -0.322293 48.3007 -0.627803 38.5354 2.02001C28.7701 4.66782 20.0099 10.15 13.3628 17.7733C6.71559 25.3965 2.48003 34.8184 1.19175 44.8472C-0.0965195 54.8761 1.62036 65.0615 6.12527 74.1152C10.6302 83.169 17.7207 90.6844 26.5002 95.711C35.2797 100.738 45.3537 103.05 55.4482 102.355C65.5427 101.66 75.2041 97.9887 83.2108 91.8064C105.56 74.5471 109.684 42.4519 92.4189 20.111H92.4205Z" fill="#FF6C37"/>
<path d="M69.1855 32.8078L47.6151 54.5337L41.5195 48.2715C62.7494 27.0569 64.8804 28.9739 69.1871 32.8078H69.1855Z" fill="white"/>
<path d="M47.6157 55.128C47.4246 55.1233 47.2422 55.0475 47.1041 54.9155L40.9654 48.7811C40.8271 48.6382 40.7499 48.4471 40.7499 48.2484C40.7499 48.0496 40.8271 47.8586 40.9654 47.7156C61.8963 26.7997 64.7531 27.7789 69.6976 32.2519C69.8655 32.3861 69.9598 32.5906 69.9534 32.8062C69.9854 33.0139 69.9055 33.2264 69.7408 33.3606L48.1704 54.9171C48.0185 55.0561 47.8219 55.1312 47.6157 55.1296V55.128ZM42.5848 48.2699L47.6157 53.2972L68.0782 32.8494C67.3717 31.9646 66.3636 31.3711 65.2467 31.1825C64.1297 30.9939 62.9824 31.2233 62.0242 31.827C58.3154 33.4884 52.3476 38.5572 42.5848 48.2699Z" fill="#FF6C37"/>
<path d="M53.7971 60.5403L47.9141 54.5337L69.4845 33.2328C75.2827 38.8991 66.6709 48.3562 53.7971 60.5387V60.5403Z" fill="white"/>
<path d="M53.7977 61.3071C53.609 61.2921 53.4299 61.2177 53.2862 61.0946L47.2753 55.2158C47.1851 54.9974 47.1851 54.7521 47.2753 54.5337C47.2113 54.3548 47.2113 54.1583 47.2753 53.9794L68.8457 32.4244C69.1574 32.1321 69.6418 32.1321 69.9535 32.4244C71.3683 33.7248 72.1437 35.5747 72.0845 37.4933C72.0845 43.2442 65.5189 50.4857 54.3508 61.0515C54.2016 61.199 54.0053 61.2895 53.7961 61.3071H53.7977ZM49.0226 54.5337L53.8393 59.3453C62.3648 51.294 70.5083 42.987 70.5498 37.3639C70.5962 36.1718 70.2018 35.0044 69.442 34.0842L49.0226 54.5337Z" fill="#FF6C37"/>
<path d="M41.6894 48.3993L45.953 52.6598C45.9802 52.6838 46.002 52.7133 46.0169 52.7463C46.0318 52.7794 46.0396 52.8152 46.0396 52.8515C46.0396 52.8878 46.0318 52.9236 46.0169 52.9567C46.002 52.9897 45.9802 53.0192 45.953 53.0432L36.9574 54.9602C36.585 55.0401 36.2061 54.8611 36.027 54.5257C35.848 54.1902 35.9151 53.7749 36.1901 53.5113L41.4336 48.3146C41.4336 48.3146 41.6047 48.3146 41.6894 48.3993Z" fill="white"/>
<path d="M36.7447 55.8117C36.4605 55.8081 36.1819 55.7318 35.9356 55.59C35.6893 55.4482 35.4835 55.2457 35.3379 55.0018C35.0022 54.3676 35.1221 53.5864 35.6368 53.0848L40.8372 47.845C41.0247 47.6775 41.2675 47.5849 41.519 47.5849C41.7706 47.5849 42.0133 47.6775 42.2008 47.845L46.4644 52.1055C46.717 52.3452 46.8161 52.7078 46.7202 53.0433C46.6243 53.3787 46.3429 53.6455 45.996 53.7254L37.0005 55.6424L36.7447 55.8117ZM41.5198 49.3371L36.7031 54.1503L44.6755 52.4458L41.5198 49.3371Z" fill="#FF6C37"/>
<path d="M80.6543 20.8362C77.569 17.8617 72.7219 17.7371 69.4862 20.5439C66.2506 23.3507 65.6975 28.1687 68.2169 31.6353C70.7364 35.1018 75.4859 36.0731 79.1628 33.8718L73.3645 28.0777L80.6543 20.8362Z" fill="white"/>
<path d="M74.8997 35.8303C73.1271 35.8076 71.4003 35.2641 69.9346 34.2676C68.4689 33.2711 67.3291 31.8656 66.6571 30.2263C65.2823 26.8747 66.0433 23.028 68.5755 20.4528C70.2823 18.7786 72.5784 17.8406 74.97 17.8406C77.3617 17.8406 79.6578 18.7786 81.3646 20.4528C81.5277 20.5902 81.6204 20.7931 81.6204 21.0072C81.62 21.1125 81.5969 21.2165 81.5528 21.3121C81.5087 21.4078 81.4445 21.4928 81.3646 21.5615L74.4585 28.0792L79.702 33.2343C79.787 33.3154 79.8508 33.416 79.8878 33.5274C79.9249 33.6388 79.9341 33.7576 79.9146 33.8733C79.902 33.985 79.8649 34.0926 79.8061 34.1884C79.7473 34.2842 79.6681 34.3659 79.5741 34.4277C78.1654 35.3075 76.5461 35.7931 74.8853 35.8335L74.8997 35.8303ZM74.8997 19.301C71.8623 19.317 69.1446 21.1429 68.0048 23.9338C66.865 26.7246 67.4852 29.9371 69.6146 32.081C71.7824 34.2583 75.05 34.8846 77.8844 33.6577L72.8535 28.6304C72.6856 28.4962 72.5913 28.2917 72.5977 28.076C72.6041 27.8764 72.6968 27.6895 72.8535 27.5649L79.5038 20.8762C78.1817 19.8634 76.5655 19.3106 74.8997 19.2994V19.301Z" fill="#FF6C37"/>
<path d="M80.7821 20.964L73.4923 28.2055L79.2905 33.9996C79.8741 33.6648 80.4174 33.2644 80.9099 32.8062C84.0688 29.4515 84.0113 24.2309 80.7821 20.964Z" fill="white"/>
<path d="M79.1613 34.6386C79.0655 34.6437 78.9698 34.6273 78.8813 34.5906C78.7927 34.5538 78.7136 34.4976 78.6497 34.4261L72.8515 28.632C72.6836 28.4978 72.5893 28.2933 72.5957 28.0777C72.6021 27.878 72.6948 27.6911 72.8515 27.5665L80.0981 20.4529C80.1681 20.3474 80.2631 20.2609 80.3747 20.2011C80.4863 20.1412 80.6109 20.1099 80.7375 20.1099C80.8642 20.1099 80.9888 20.1412 81.1004 20.2011C81.212 20.2609 81.307 20.3474 81.377 20.4529C82.2277 21.2858 82.9036 22.28 83.365 23.3772C83.8264 24.4744 84.064 25.6526 84.064 26.8428C84.064 28.033 83.8264 29.2112 83.365 30.3084C82.9036 31.4056 82.2277 32.3998 81.377 33.2328C80.8752 33.7647 80.301 34.2234 79.6712 34.5954C79.5127 34.6753 79.3294 34.6907 79.1597 34.6386H79.1613ZM74.4725 28.0793L79.2892 32.8925C79.6205 32.6604 79.9342 32.4041 80.2276 32.1257C81.6435 30.7146 82.441 28.7996 82.4449 26.8013C82.4481 25.013 81.7958 23.2854 80.6112 21.9449L74.4725 28.0793Z" fill="#FF6C37"/>
<path d="M70.081 33.7024C68.882 32.5778 67.0164 32.5778 65.8174 33.7024L46.5075 52.9554L49.7048 56.1935L70.1241 38.3016C70.7556 37.6993 71.1089 36.8638 71.0993 35.9916C71.0897 35.1194 70.722 34.2903 70.081 33.7008V33.7024Z" fill="white"/>
<path d="M49.5336 56.9619C49.3425 56.9572 49.1601 56.8815 49.022 56.7494L45.7816 53.5113C45.6433 53.3684 45.5661 53.1774 45.5661 52.9786C45.5661 52.7798 45.6433 52.5888 45.7816 52.4458L65.0931 33.2328C66.6246 31.7056 69.1057 31.7056 70.6356 33.2328C71.4029 33.9996 71.8185 35.0459 71.7866 36.129C71.7418 37.2057 71.2654 38.2186 70.4645 38.9406L50.0451 56.8325C49.8964 56.9379 49.7142 56.9827 49.5336 56.9603V56.9619ZM47.2747 52.9554L49.4057 55.128L69.4414 37.7042C69.9369 37.2728 70.2327 36.6562 70.2519 35.9996C70.2711 35.3431 70.0121 34.7009 69.5277 34.2536C68.5957 33.327 67.0914 33.327 66.1594 34.2536L47.2747 52.9554Z" fill="#FF6C37"/>
<path d="M31.5447 74.8953C31.4901 74.9694 31.4607 75.059 31.4607 75.1509C31.4607 75.2429 31.4901 75.3324 31.5447 75.4065L32.3967 79.1127C32.4703 79.5552 32.2577 79.9961 31.866 80.2309C31.6761 80.342 31.4558 80.3899 31.2369 80.3678C31.0179 80.3457 30.8117 80.2547 30.6478 80.1079L24.808 74.4848L43.0117 56.1504H49.3215L53.5851 60.4109C46.9343 66.2216 39.5186 71.095 31.5447 74.8953Z" fill="white"/>
<path d="M31.1605 81.1574C30.6777 81.1479 30.2013 80.9498 29.8816 80.6031L24.2976 75.0231C24.1297 74.8889 24.0354 74.6844 24.0418 74.4688C24.0482 74.2691 24.1409 74.0822 24.2976 73.9576L42.6275 55.5976C42.7302 55.4886 42.8643 55.4143 43.0112 55.3851H49.3626C49.5281 55.3267 49.7087 55.3267 49.8742 55.3851L54.1377 59.6456C54.3024 59.7974 54.3823 60.0211 54.3503 60.2415C54.3533 60.3474 54.3318 60.4525 54.2874 60.5486C54.2431 60.6448 54.1771 60.7294 54.0946 60.7958L53.754 61.0946C47.0764 66.6575 39.7298 71.3655 31.8847 75.1094L32.6952 78.5599C32.7579 78.8261 32.7603 79.1029 32.7022 79.3701C32.6442 79.6374 32.5272 79.8883 32.3598 80.1046C32.1923 80.3209 31.9787 80.4971 31.7345 80.6204C31.4902 80.7437 31.2215 80.8109 30.9479 80.8172L31.1605 81.1574ZM25.9602 74.4688L30.9895 79.5376C31.0363 79.5794 31.0969 79.6024 31.1597 79.6024C31.2225 79.6024 31.2831 79.5794 31.33 79.5376C31.3613 79.4941 31.3782 79.4418 31.3782 79.3882C31.3782 79.3346 31.3613 79.2824 31.33 79.2389L30.4779 75.5327C30.3404 74.9847 30.6058 74.4144 31.1174 74.17C38.7515 70.4762 45.9088 65.87 52.432 60.4524L48.9358 56.9587H43.2238L25.9602 74.4688Z" fill="#FF6C37"/>
<path d="M20.4178 78.8571L24.6813 74.5966L31.2469 81.1575L20.803 80.4338C20.4354 80.4067 20.1236 80.1463 20.0357 79.7852C19.9478 79.4242 20.1028 79.0504 20.4194 78.8587L20.4178 78.8571Z" fill="white"/>
<path d="M31.373 81.7965L20.9706 81.0728C20.3536 81.0153 19.8228 80.5936 19.6054 80.0297C19.388 79.4657 19.5207 78.7964 19.9475 78.3459L24.2111 74.0854C24.3541 73.9473 24.5453 73.8701 24.7442 73.8701C24.9431 73.8701 25.1343 73.9473 25.2774 74.0854L31.7998 80.6031C31.9852 80.8587 31.9852 81.2006 31.7998 81.4546C31.7007 81.6144 31.5504 81.7342 31.373 81.7949V81.7965ZM20.9706 79.4114L29.4962 79.9658L24.8074 75.5774L20.9706 79.4114Z" fill="#FF6C37"/>
<path d="M49.9175 56.6648L41.3057 57.9859L46.2934 53.0449L49.9175 56.6648Z" fill="white"/>
<path d="M41.3053 58.7926C41.0127 58.8006 40.7458 58.6329 40.6227 58.3661C40.5319 58.2427 40.4829 58.0935 40.4829 57.9403C40.4829 57.7872 40.5319 57.638 40.6227 57.5146L45.5672 52.5304C45.879 52.2381 46.3634 52.2381 46.6751 52.5304L50.3008 56.1503C50.3732 56.2651 50.4117 56.3981 50.4117 56.5338C50.4117 56.6694 50.3732 56.8024 50.3008 56.9171C50.2652 57.057 50.1901 57.1837 50.0843 57.282C49.9786 57.3804 49.8467 57.4461 49.7045 57.4715L41.179 58.7926H41.3053ZM46.293 54.1487L43.5226 56.9171L48.2977 56.1935L46.293 54.1487Z" fill="#FF6C37"/>
<path d="M49.9172 56.6615L43.9063 57.4283C43.7454 57.4648 43.5771 57.4485 43.4262 57.3819C43.2754 57.3152 43.15 57.2018 43.0687 57.0584C42.9874 56.9149 42.9546 56.7492 42.975 56.5856C42.9954 56.422 43.068 56.2694 43.1821 56.1503L46.2947 53.04L49.9172 56.6615Z" fill="white"/>
<path d="M43.7357 58.2398C43.1682 58.235 42.6486 57.9251 42.372 57.4299C42.2092 57.1383 42.1461 56.8016 42.1923 56.4709C42.2385 56.1402 42.3911 55.8336 42.6275 55.5976L45.7404 52.4873C46.0521 52.1949 46.5365 52.1949 46.8482 52.4873L50.4723 56.1088C50.5801 56.2108 50.6559 56.3419 50.6907 56.4862C50.7254 56.6304 50.7174 56.7816 50.6679 56.9215C50.6183 57.0613 50.5292 57.1838 50.4113 57.274C50.2935 57.3643 50.152 57.4184 50.0039 57.4299L44.0362 58.1967L43.7357 58.2398ZM43.7357 56.6631L48.255 56.1088L46.2519 54.1071L43.6941 56.6631H43.7357ZM80.824 25.8635C80.7437 25.7291 80.6168 25.6288 80.4674 25.5817C80.318 25.5346 80.1565 25.5439 80.0135 25.6079C79.943 25.6436 79.8803 25.6932 79.8292 25.7535C79.7781 25.8139 79.7397 25.8839 79.7162 25.9594C79.6682 26.1111 79.6842 26.2757 79.7577 26.4178C80.0567 27.0456 79.9736 27.7885 79.5451 28.3348C79.4332 28.4403 79.3853 28.5856 79.3853 28.739C79.3868 28.8888 79.4438 29.0328 79.5451 29.1432C79.6545 29.1863 79.7762 29.1863 79.8856 29.1432C79.9849 29.1681 80.0891 29.1653 80.1869 29.1352C80.2847 29.1051 80.3724 29.0487 80.4404 28.9722C80.7914 28.5427 81.0137 28.0228 81.0816 27.4724C81.1495 26.922 81.0602 26.3637 80.824 25.8619V25.8635Z" fill="#FF6C37"/>
</svg>
