<svg width="104" height="104" viewBox="0 0 104 104" fill="none" xmlns="http://www.w3.org/2000/svg">
<path d="M103.223 0.998413H0.970404C0.95385 0.998413 0.94043 1.01182 0.94043 1.02837V103.208C0.94043 103.224 0.95385 103.238 0.970404 103.238H103.223C103.24 103.238 103.253 103.224 103.253 103.208V1.02837C103.253 1.01182 103.24 0.998413 103.223 0.998413Z" fill="#21759B"/>
<path d="M41.7057 88.0616L52.8962 55.313L64.4863 87.0631L70.2813 83.8682L81.4718 51.519C83.4701 46.3271 84.0696 42.1337 84.0696 38.5394C84.2694 31.9497 81.4718 26.1588 76.6759 25.5598C72.2796 25.1604 69.8817 29.3538 70.0815 31.9497C70.4812 37.9403 76.476 41.335 76.476 49.5221C76.476 55.5127 72.6793 64.898 70.0815 73.8838L57.0926 35.1447C59.2907 34.945 61.289 34.945 61.289 34.945C63.2873 34.7453 63.0875 31.75 61.0892 31.9497C54.4948 32.5488 48.4999 32.3491 41.9055 31.9497C39.9072 31.75 39.7074 34.7453 41.7057 34.945C41.7057 34.945 43.5042 34.945 45.5025 35.1447L51.0977 50.5205L43.1045 74.2832L30.1156 35.1447C32.3137 34.945 34.1122 34.945 34.1122 34.945C36.1105 34.7453 35.9106 31.75 33.9124 31.9497C27.9175 32.3491 22.1224 32.7485 20.7236 31.75L18.9251 36.7422L36.5101 85.266L41.7057 88.0616Z" fill="white"/>
</svg>
